# xmcd
#
# Track frame offsets: 
#        150
#        17081
#        31976
#        48661
#        65995
#        81943
#        98479
#        117719
#        138558
#        158255
#        174638
#        192785
#        208504
#        224633
#        238559
#        258886
#        273804
#        294698
#        307148
#        324160
#        336126
#
# Disc length: 4681 seconds
#
# Revision: 0
# Processed by: cddbd v1.5.2PL0 Copyright (c) Steve Scherf et al.
# Submitted via: ExactAudioCopy v0.99pb3
#
DISCID=38124715
DTITLE=Leann Rimes - I Need You
DYEAR=2001
DGENRE=Disco
TTITLE0=I Need You
TTITLE1=But I Do Love You
TTITLE2=You Are
TTITLE3=Soon
TTITLE4=Can't Fight The Moonlight
TTITLE5=Love Must Be Telling Me Something
TTITLE6=Written In The Stars (Duet with Elton John)
TTITLE7=One Of These Days
TTITLE8=I Believe In You
TTITLE9=Together, Forever, Always
TTITLE10=Looking Through Your Eyes
TTITLE11=Don't Worry
TTITLE12=You Light Up My Life
TTITLE13=Dig Deal
TTITLE14=Please Remember
TTITLE15=Born To Lose
TTITLE16=Bridge Over Troubled Waters
TTITLE17=Blue
TTITLE18=The Right Kind Of Wrong
TTITLE19=Your Cheatin' Heart
TTITLE20=Honestly
EXTD=
EXTT0=
EXTT1=
EXTT2=
EXTT3=
EXTT4=
EXTT5=
EXTT6=
EXTT7=
EXTT8=
EXTT9=
EXTT10=
EXTT11=
EXTT12=
EXTT13=
EXTT14=
EXTT15=
EXTT16=
EXTT17=
EXTT18=
EXTT19=
EXTT20=
PLAYORDER=
